<?xml version="1.0" encoding="UTF-8"?>
<svg id="Layer_1" data-name="Layer 1" xmlns="http://www.w3.org/2000/svg" viewBox="0 0 871.27 207.14">
  <defs>
    <style>
      .cls-1 {
        fill: #fff;
      }
    </style>
  </defs>
  <path class="cls-1" d="M122.71,122.81c-.69-.23-1.45-.78-1.73-1.55-.69-1.6.7-3.41,2.37-3.37,19.12,1.28,38.67-1.01,50.09-5.49,6.97-2.73,11.25-9.9,10.25-17.31-.22-1.66-.63-3.42-1.18-5.34-1.36-4.64-2.85-7.63-6.17-9.07-2.33-1.01-5.06-.36-6.73,1.54-14.39,16.38-37.27,24.08-45.17,25.25-1.06.29-2.51-.05-3.08-1.16-1.05-2.05.6-3.36,2.39-4.07,21.64-10.74,33.21-23.58,38.62-35.13,1.3-2.77,1.64-5.92.94-8.9-1.26-5.39-4.2-9.1-8.98-13.38-3.79-3.32-6.71-5.22-10.28-4.29-2.53.66-4.35,2.87-4.61,5.47-1.41,14.3-5.73,34.76-23.22,48.39-.89.6-2.02.65-2.9.08-1.38-.83-1.38-2.61-.74-3.9.46-1.15.89-2.32,1.3-3.54,6.75-19.93,6.56-48.02-1.86-67.7-4.88-11.88-16.35-25.82-28.81-16.05-21.27,17.9-21.68,63.21-11.94,87.41,1.2,2.3-.63,4.96-3.19,3.97-17.6-12.9-22.59-34.81-23.63-48.46-.12-1.57-.81-3.04-1.95-4.13-.75-.71-1.57-1.32-2.53-1.69-3.82-1.28-7.11,1.44-10.02,3.95-3.51,3.09-6.07,6.17-8.21,9.92-2.03,3.57-2.39,7.89-.91,11.73,4.64,12.1,21.59,28.25,39.24,36.25,1.59.64,3.24,1.79,2.56,3.7-.42,1.33-2,1.87-3.23,1.53-7.54-1.45-30.04-7.86-44.62-24.89-.75-.88-1.73-1.53-2.84-1.85-1.45-.41-2.93-.67-4.38-.26-.22.06-.43.14-.63.24-3.63,1.71-4.82,6.05-5.91,9.85-.45,1.71-.77,3.28-.94,4.77-.86,7.39,3.45,14.4,10.38,17.09,11.1,4.31,30.15,6.76,49.17,5.46,1.07-.1,2.33.11,2.96,1.1.72,1.02.47,2.55-.52,3.29-14.48,4.67-35.83,7.7-52.99,4.84-1.58-.26-3.22-.09-4.66.61-1.12.54-2.17,1.22-2.94,2.21-2.27,3.03-1.42,7.25-.34,10.92,1.52,4.89,3.58,7.95,6.93,9.95,3.1,1.84,6.81,2.35,10.34,1.59,13-2.81,31.23-8.9,49.5-21.16,1.59-1.22,3.86-.24,3.68,1.78-3.25,6.28-14.88,17.34-36.08,29.08-4.68,2.46-15.26,5.46-15.38,11.62.02,5.29,6.84,10.88,11.81,12.71,1.75.65,3.57.83,5.39.75,3.17-.13,6.18-1.46,8.47-3.67,10.27-9.91,21.47-25.04,31.74-45.06.62-.75,1.68-1.04,2.6-.69,1.11.33,1.73,1.76,1.5,2.76-2.54,8.13-9.69,28.26-22.69,50.34-.89,1.52-1.46,3.22-1.6,4.98-.1,1.36-.03,2.71.47,3.99,1.49,3.67,5.55,5.3,9.42,6.37,5.25,1.35,9.03,1.34,12.38-.96,2.65-1.81,4.34-4.71,4.83-7.88,1.38-8.8,2.17-18.22,2.92-28.14.51-6.73,1.08-14.01,1.62-20.55.3-2.71.29-4.48.85-6.89.65-2.03,2.9-2.48,3.9-.46.6,1.32.48,2.3.72,3.89.76,7.74,1.33,16.1,1.96,24.03.72,9.9,1.58,19.38,2.91,28.15.35,2.32,1.36,4.5,2.96,6.22,3.61,3.91,7.88,4.26,14.2,2.64,3.91-1.09,8.05-2.73,9.52-6.46.51-1.35.55-2.77.4-4.19-.17-1.66-.7-3.26-1.53-4.7-13.17-22.77-20.56-42.05-22.74-51.21.14-1.83,2.61-2.73,3.9-1.44,10.56,20.03,21.57,35.45,32.13,45.45,3.13,2.96,7.54,4.28,11.74,3.32,2.54-.58,4.91-1.93,7.44-4.22,3.68-3.36,5.55-6.21,5.3-10.16-.14-2.14-1.49-4.01-3.43-4.92-21.14-9.88-40.83-24.59-46.77-33.83-.85-1.55.53-3.6,2.36-3.13,18.31,12.04,37.66,18.94,50.57,21.71,2.61.56,5.33.4,7.84-.5,4.81-1.74,7.48-5,9.35-10.98,1.07-3.63,1.92-7.72-.14-10.81-.22-.32-.46-.6-.72-.87-1.79-1.83-4.41-2.58-6.94-2.14-19.55,3.42-43.5-1.99-52.09-4.35Z"/>
  <g>
    <path class="cls-1" d="M284.66,51.42h0c7.97,0,15.1,4.95,17.89,12.42l41.9,112.2h-21.61l-11.68-32.24h-53.16l-11.68,32.24h-21.61l42.07-112.22c2.79-7.46,9.92-12.4,17.88-12.4ZM305.41,126.71l-19.74-56.76c-.33-.95-1.67-.95-1.99,0l-19.74,56.76h41.48Z"/>
    <path class="cls-1" d="M346.01,81.75h19.7v54.03c0,16.91,6.45,25.27,19.69,25.27,14.29,0,23.53-9.59,23.53-25.27v-54.03h19.69v94.29h-18.13l-.35-16.9c-4.88,12.55-16.03,19.17-30.5,19.17-20.57,0-33.64-13.59-33.64-35.9v-60.66Z"/>
    <g>
      <path class="cls-1" d="M513.32,96.73c-5.75-11.15-17.6-17.26-31.37-17.26-24.58,0-41.13,19.87-41.13,49.5s16.38,49.32,41.13,49.32c13.77,0,26.49-6.1,32.07-18.13l.52,15.86h18.13V47.93h-19.35v48.8ZM486.47,161.4c-16.38,0-25.8-11.85-25.8-32.59s9.41-32.59,25.8-32.59,26.84,12.2,26.84,32.42-10.11,32.77-26.84,32.77Z"/>
      <rect class="cls-1" x="547.72" y="81.75" width="19.35" height="94.9"/>
      <rect class="cls-1" x="547.2" y="47.93" width="20.57" height="20.74"/>
      <rect class="cls-1" x="753.45" y="81.75" width="19.35" height="94.9"/>
      <rect class="cls-1" x="752.93" y="47.93" width="20.57" height="20.74"/>
      <path class="cls-1" d="M613.17,57.87h-19.7v23.88h-14.99v16.73h14.99v58.48c0,10.88,8.82,19.7,19.7,19.7h33.29v-16.73h-31c-1.27,0-2.29-1.03-2.29-2.29v-59.14h33.29v-16.73h-33.29v-23.88Z"/>
      <path class="cls-1" d="M700.25,155.27c-.33.94-1.66.94-1.99,0l-26.02-73.53h-20.57l30.9,82.76c2.59,6.93,9.21,11.53,16.61,11.53h0c7.38,0,13.99-4.57,16.59-11.48l31.23-82.82h-20.74l-26.02,73.53Z"/>
      <path class="cls-1" d="M829.79,79.48c-25.45,0-41.48,13.6-43.57,35.56h20.04c1.74-12.2,9.24-19.52,23.18-19.52s22.31,7.32,22.31,21.26v.87l-34.51,6.1c-21.78,3.83-32.24,12.55-32.24,27.89,0,17.78,13.94,26.67,32.07,26.67,16.21,0,30.15-7.32,35.73-16.73l.52,14.47h17.95v-57.69c0-24.58-15.34-38.87-41.48-38.87ZM851.75,136.65c0,14.99-11.33,25.97-28.58,25.97-10.81,0-17.78-4.18-17.78-13.07,0-6.8,4.18-10.98,16.38-13.07l29.98-5.58v5.75Z"/>
    </g>
  </g>
</svg>